<?xml version="1.0" encoding="UTF-8" standalone="no"?>
<!-- Created with Inkscape (http://www.inkscape.org/) -->

<svg
   width="50mm"
   height="50mm"
   viewBox="0 0 50 50"
   version="1.1"
   id="svg5"
   xml:space="preserve"
   sodipodi:docname="logo_cobra.svg"
   inkscape:version="1.2 (dc2aedaf03, 2022-05-15)"
   xmlns:inkscape="http://www.inkscape.org/namespaces/inkscape"
   xmlns:sodipodi="http://sodipodi.sourceforge.net/DTD/sodipodi-0.dtd"
   xmlns="http://www.w3.org/2000/svg"
   xmlns:svg="http://www.w3.org/2000/svg"><sodipodi:namedview
     id="namedview7"
     pagecolor="#ffffff"
     bordercolor="#666666"
     borderopacity="1.0"
     inkscape:showpageshadow="2"
     inkscape:pageopacity="0.0"
     inkscape:pagecheckerboard="0"
     inkscape:deskcolor="#d1d1d1"
     inkscape:document-units="mm"
     showgrid="false"
     inkscape:zoom="2.3786088"
     inkscape:cx="141.04883"
     inkscape:cy="104.89325"
     inkscape:window-width="1680"
     inkscape:window-height="827"
     inkscape:window-x="304"
     inkscape:window-y="348"
     inkscape:window-maximized="0"
     inkscape:current-layer="layer1" /><defs
     id="defs2" /><g
     inkscape:label="Calque 1"
     inkscape:groupmode="layer"
     id="layer1"
     transform="translate(-48.677661,-38.465038)"><rect
       style="fill:#e4ffff;fill-opacity:1;stroke:none;stroke-width:0.499999;stroke-linecap:square;stroke-linejoin:round;stroke-dasharray:none;stroke-opacity:1"
       id="rect10515"
       width="49.999996"
       height="50.000004"
       x="48.677662"
       y="38.465038" /><g
       id="g8251"
       transform="rotate(-4.1020727,-897.42531,1606.8116)"><path
         style="fill:#c72681;fill-opacity:1;stroke:#000000;stroke-width:0.5;stroke-linecap:butt;stroke-linejoin:miter;stroke-dasharray:none;stroke-opacity:1"
         d="m 166.77287,129.48513 c 0,0 -7.6267,-7.20249 -7.70536,-8.26433 -0.0787,-1.06183 0.38948,-1.25556 1.45034,-1.25091 1.06087,0.005 5.93292,-0.29162 8.76209,0.23396 2.82918,0.52558 7.93179,2.97934 7.93179,2.97934 z"
         id="path1150"
         sodipodi:nodetypes="cszzcc" /><path
         style="fill:#c72681;fill-opacity:1;stroke:#000000;stroke-width:0.5;stroke-linecap:butt;stroke-linejoin:miter;stroke-dasharray:none;stroke-opacity:1"
         d="m 166.77288,135.40217 c 0,0 -7.62671,7.20249 -7.70536,8.26433 -0.0787,1.06183 0.38947,1.25556 1.45034,1.25091 1.06086,-0.005 5.93291,0.29162 8.76208,-0.23396 2.82918,-0.52558 7.93179,-2.97934 7.93179,-2.97934 z"
         id="path1150-3"
         sodipodi:nodetypes="cszzcc" /><path
         id="path354"
         style="fill:#009cbb;fill-opacity:1;stroke:#000000;stroke-width:0.5;stroke-linecap:square;stroke-dasharray:none;stroke-opacity:1"
         d="m 190.76722,119.57204 a 15.310779,13.252941 0 0 0 -1.1498,0.0377 25.524242,13.232832 0 0 0 -24.37422,13.23744 25.524242,13.232832 0 0 0 24.37887,13.19402 25.524242,13.232832 0 0 0 0.001,0 15.310779,13.252941 0 0 0 1.14412,0.0367 15.310779,13.252941 0 0 0 15.31069,-13.25293 15.310779,13.252941 0 0 0 -15.31069,-13.25294 z" /><path
         id="path1201"
         style="fill:#c72681;fill-opacity:1;stroke:#000000;stroke-width:0.5;stroke-linecap:butt;stroke-linejoin:miter;stroke-dasharray:none;stroke-opacity:1"
         d="m 171.7955,131.12069 c -5.56611,0.0123 -13.64477,0.7705 -13.64477,0.7705 l -0.0498,0.73742 0.0528,0.7429 c 0,0 10.55154,0.99071 15.84536,0.72606 1.37523,-0.0687 2.08025,-0.88753 2.0117,-1.5534 h -0.003 c -0.0588,-0.62624 -0.75535,-1.31488 -2.01171,-1.37769 -0.66172,-0.0331 -1.40541,-0.0467 -2.20057,-0.045 z"
         sodipodi:nodetypes="cccccccscc" /><path
         id="path1248"
         style="fill:#ffecc7;fill-opacity:1;stroke:#000000;stroke-width:0.5;stroke-linecap:square;stroke-linejoin:round;stroke-dasharray:none;stroke-opacity:1"
         d="m 181.24456,143.67577 c -0.58338,2e-5 -1.05629,0.47293 -1.05631,1.05631 0,0 -0.17431,1.98618 0.21503,2.48329 0.38934,0.49712 0.89576,0.77203 2.72192,1.13858 1.82616,0.36656 6.43566,0.30303 8.22502,0 1.78936,-0.30303 2.02029,-0.45545 2.51548,-0.87715 0.49518,-0.42169 0.28154,-2.20624 0.27984,-2.74472 -0.002,-0.53847 -0.47293,-1.05629 -1.05631,-1.05631 z"
         sodipodi:nodetypes="cczzzzzcc" /><text
         xml:space="preserve"
         style="font-size:11.6019px;line-height:100%;font-family:Roboto;-inkscape-font-specification:Roboto;letter-spacing:0px;word-spacing:0px;stroke-width:0.36256"
         x="182.15195"
         y="135.43951"
         id="text6517"><tspan
           sodipodi:role="line"
           id="tspan6515"
           style="font-style:normal;font-variant:normal;font-weight:bold;font-stretch:semi-condensed;font-family:'PT Sans Narrow';-inkscape-font-specification:'PT Sans Narrow Bold Semi-Condensed';fill:#ffffff;stroke-width:0.36256"
           x="182.15195"
           y="135.43951">o</tspan></text><text
         xml:space="preserve"
         style="font-size:10.0893px;line-height:100%;font-family:Roboto;-inkscape-font-specification:Roboto;letter-spacing:0px;word-spacing:0px;stroke-width:0.315291"
         x="177.51163"
         y="135.51378"
         id="text6517-1"><tspan
           sodipodi:role="line"
           id="tspan6515-71"
           style="font-style:normal;font-variant:normal;font-weight:bold;font-stretch:semi-condensed;font-family:'PT Sans Narrow';-inkscape-font-specification:'PT Sans Narrow Bold Semi-Condensed';fill:#ffffff;stroke-width:0.315291"
           x="177.51163"
           y="135.51378">C</tspan></text><text
         xml:space="preserve"
         style="font-size:13.1468px;line-height:100%;font-family:Roboto;-inkscape-font-specification:Roboto;letter-spacing:0px;word-spacing:0px;stroke-width:0.410839"
         x="187.13486"
         y="136.08057"
         id="text6517-5"><tspan
           sodipodi:role="line"
           id="tspan6515-4"
           style="font-style:normal;font-variant:normal;font-weight:bold;font-stretch:semi-condensed;font-family:'PT Sans Narrow';-inkscape-font-specification:'PT Sans Narrow Bold Semi-Condensed';fill:#ffffff;stroke-width:0.410839"
           x="187.13486"
           y="136.08057">B</tspan></text><text
         xml:space="preserve"
         style="font-size:10.4911px;line-height:100%;font-family:Roboto;-inkscape-font-specification:Roboto;letter-spacing:0px;word-spacing:0px;stroke-width:0.327848"
         x="214.21263"
         y="122.59161"
         id="text6517-7"
         transform="scale(0.90425952,1.1058772)"><tspan
           sodipodi:role="line"
           id="tspan6515-7"
           style="font-style:normal;font-variant:normal;font-weight:bold;font-stretch:semi-condensed;font-family:'PT Sans Narrow';-inkscape-font-specification:'PT Sans Narrow Bold Semi-Condensed';fill:#ffffff;stroke-width:0.327848"
           x="214.21263"
           y="122.59161">R</tspan></text><text
         xml:space="preserve"
         style="font-size:7.93033px;line-height:100%;font-family:Roboto;-inkscape-font-specification:Roboto;letter-spacing:0px;word-spacing:0px;stroke-width:0.247823"
         x="224.08122"
         y="119.26276"
         id="text6517-7-6"
         transform="scale(0.8856093,1.1291661)"><tspan
           sodipodi:role="line"
           id="tspan6515-7-4"
           style="font-style:normal;font-variant:normal;font-weight:bold;font-stretch:semi-condensed;font-family:'PT Sans Narrow';-inkscape-font-specification:'PT Sans Narrow Bold Semi-Condensed';fill:#ffffff;stroke-width:0.247823"
           x="224.08122"
           y="119.26276">A</tspan></text></g></g></svg>
